<svg xmlns="http://www.w3.org/2000/svg" width="400" height="33.105" viewBox="-150.5 33.5 400 33.105" enable-background="new -150.5 33.5 400 33.105"><path d="M-140.782 60.69c0 1.482.318 2.46.957 2.93.635.466 1.884.88 3.747 1.228.016.016.03.027.05.027l.024.918H-150.5v-.918h.077c1.898-.453 3.105-.89 3.623-1.308.515-.415.77-1.364.77-2.845v-21.29c0-1.497-.273-2.478-.823-2.937-.553-.464-1.74-.868-3.57-1.22h-.022l-.053-.966h25.706l.497 7.627h-1.543c-.016-.017-.023-.037-.023-.053-.366-2.09-.993-3.5-1.88-4.233-.89-.727-2.404-1.096-4.546-1.096h-6.118c-.87 0-1.486.16-1.84.47-.356.313-.536.897-.536 1.75v9.432h6.375c1.967 0 3.29-.297 3.973-.89.68-.59 1.02-1.72 1.02-3.394h1.67V55.78h-1.647c0-1.915-.338-3.23-1.02-3.938-.677-.704-2.01-1.052-3.996-1.052l-6.375.023v9.876zm17.976 4.158c1.95-.418 3.186-.847 3.71-1.273.52-.425.784-1.387.784-2.885V39.398c0-1.498-.276-2.472-.824-2.928-.553-.45-1.748-.852-3.593-1.2l-.052-.022-.023-.94h14.236v.94h-.055c-1.288.278-2.174.515-2.663.707-.49.19-.907.552-1.254 1.08-.346.532-.52 1.32-.52 2.365v21.29c0 1.464.29 2.452.86 2.956.575.505 1.75.92 3.526 1.23.05-.02.087-.027.103-.027v.936h-14.23v-.938zM-81.4 39.403c0-1.498-.258-2.457-.77-2.873-.515-.416-1.72-.846-3.62-1.278l-.08-.938h11.547v.938h-.053c-1.913.453-3.135.894-3.658 1.32-.522.422-.783 1.37-.783 2.83v26.39h-1.542l-19.227-24.69-.025 19.597c0 .812.057 1.45.17 1.91.112.465.47.86 1.07 1.17.6.314 1.017.498 1.242.557.223.06.975.236 2.246.516l.023.027.052.938h-11.857v-.938h.077c1.9-.45 3.108-.89 3.62-1.305.516-.418.772-1.378.772-2.876V38.44c-1.128-1.743-2.586-2.796-4.362-3.16l-.077-.967h8.54l16.696 21.6v-16.51zm43.05 20.793V38.43c-1.15-1.74-2.603-2.796-4.36-3.16h-.054v-.936h8.517l16.696 21.603v-16.54c0-1.48-.262-2.428-.774-2.847-.51-.417-1.72-.846-3.616-1.28l-.078-.936h11.547v.937h-.054c-1.913.457-3.134.893-3.658 1.31-.522.415-.783 1.366-.783 2.844V65.81h-1.542L-35.73 41.12v19.595c0 .82.05 1.45.154 1.915.106.46.46.847 1.073 1.144.607.312 1.02.496 1.23.555.207.06.954.243 2.245.542h.023l.053.938h-25.16v-.938c.07 0 .103-.012.103-.027 1.78-.367 2.805-.847 3.085-1.443.276-.59.08-1.722-.604-3.396l-1.747-4.385h-12.25l-2.04 4.856c-.4.96-.662 1.69-.784 2.197-.124.505.032.902.47 1.215.43.297.766.48.99.535.224.055.933.2 2.12.445h.077l.052.934h-10.45v-.934h.053c1.324-.312 2.29-.82 2.9-1.508.606-.688 1.45-2.2 2.534-4.55l10.994-25.056h1.78c4.197 10.397 7.6 18.6 10.213 24.613 1.168 2.696 2.085 4.37 2.756 5.048.666.67 1.85 1.062 3.537 1.163.276 0 .576-.006.89-.023 1.236-.142 2.058-.484 2.47-1.047.41-.55.614-1.655.614-3.312zm-28.084-7.026h10.11l-4.99-11.91-5.12 11.91zm83.468 5.822c0 .016-.008.047-.023.08-.89 2.295-2.42 4.11-4.595 5.436-2.18 1.324-4.755 1.985-7.734 1.985-4.633 0-8.35-1.5-11.155-4.496C-9.28 59-10.68 55.094-10.68 50.265c0-4.597 1.44-8.517 4.322-11.757s6.725-4.86 11.535-4.86c1.497 0 3.178.2 5.04.6.276.07.74.206 1.372.405.636.198 1.11.302 1.423.302.507 0 .992-.216 1.462-.654h.992l.467 9.563h-1.62c-1.337-5.378-4.28-8.072-8.828-8.072-3.172 0-5.727 1.317-7.67 3.948-1.943 2.63-2.91 6.07-2.91 10.317 0 4.193 1.05 7.542 3.148 10.032 2.097 2.49 4.69 3.735 7.77 3.735 4.65 0 7.855-2.096 9.615-6.294.014-.052.022-.083.022-.1l1.572 1.564zm50.472 5.595c.402 0 .682-.01.836-.023 1.412-.127 2.348-.524 2.82-1.208.47-.672.71-1.996.71-3.97V39.404c0-1.513-.272-2.492-.812-2.94-.545-.443-1.725-.84-3.555-1.19-.016 0-.035-.008-.05-.024l-.058-.94h14.316v.992h-.05c-1.884.348-3.103.75-3.657 1.2-.56.45-.836 1.438-.836 2.955V60.25c0 1.303.176 2.147.52 2.54.353.396 1.185.595 2.507.595h4.936c2.268 0 3.898-.477 4.887-1.426.994-.95 1.803-2.71 2.432-5.286h1.617l-1.41 9.137H54.126v-.933h.055c1.793-.387 2.832-.865 3.125-1.443.285-.572.08-1.693-.613-3.364l-1.727-4.392H42.714l-2.036 4.863c-.4.958-.667 1.673-.795 2.177-.132.492.036.896.498 1.195.462.312.783.478.967.526.183.044.896.192 2.127.435h.132v.938h-24.66l-.028-.964h.055c1.936-.43 3.155-.86 3.668-1.276.515-.423.772-1.38.772-2.878V39.398c0-1.498-.276-2.472-.836-2.928-.558-.45-1.75-.852-3.58-1.2-.014-.015-.042-.022-.078-.022v-.94h14.238v.94c-.053 0-.08.008-.08.023-1.276.264-2.152.493-2.64.684-.484.19-.905.552-1.252 1.085-.347.534-.522 1.317-.522 2.363v21.295c0 1.583.23 2.61.682 3.08.452.468 1.413.733 2.875.785.31.015.55.015.727 0 1.254-.16 2.267-.61 3.03-1.356.768-.734 1.644-2.19 2.636-4.367L49.64 33.816h1.75L61.602 58.4c1.06 2.634 1.978 4.315 2.743 5.05s1.82 1.122 3.16 1.137zM43.812 53.223h10.112L48.93 41.308l-5.118 11.915zm81.094 7.496c0 1.477.28 2.46.844 2.952.572.488 1.748.892 3.54 1.203h.106v.934h-14.24v-.935c1.148-.263 1.914-.453 2.273-.566.366-.117.78-.317 1.245-.606.457-.303.738-.662.832-1.105.092-.435.146-1.063.146-1.88V36.447h-2.664c-2.647 0-4.435.45-5.358 1.348-.92.898-1.53 2.642-1.824 5.238-.016.067-.023.115-.023.13h-1.646l.57-8.833h27.437l.285 8.833h-1.65v-.16c-.27-2.718-.883-4.49-1.818-5.312-.94-.83-2.793-1.243-5.543-1.243h-2.505V60.72h-.01zm13.14 4.155c1.933-.453 3.163-.89 3.688-1.308.533-.415.797-1.37.797-2.87V39.404c0-1.482-.28-2.453-.835-2.908-.557-.464-1.748-.868-3.578-1.22-.033 0-.06-.008-.08-.023v-.938h14.21v.938c-.02.016-.034.023-.042.023h-.043c-1.28.28-2.174.51-2.66.694-.484.18-.898.54-1.238 1.07-.344.53-.508 1.317-.508 2.363v21.295c0 1.458.275 2.446.848 2.95.564.505 1.744.915 3.535 1.23.054-.02.087-.02.103 0v.938h-14.205v-.94h.007zm16.243.934v-.935c1.882-.438 3.067-.865 3.565-1.283.502-.415.746-1.39.746-2.926l.68-21.34c0-1.483-.26-2.437-.794-2.875-.527-.43-1.723-.828-3.59-1.175l-.055-.937h10.136l9.326 22.494 9.14-22.494h10.27v.937c-1.356.3-2.282.527-2.757.694-.477.167-.912.52-1.303 1.057-.395.54-.592 1.344-.592 2.405l.707 21.318c0 1.446.275 2.387.816 2.817.557.434 1.78.878 3.674 1.33v.92h-14.074v-.94c1.953-.448 3.22-.91 3.8-1.35.59-.446.88-1.376.88-2.806l-.682-21.445-10.767 26.54h-1.07l-10.496-25.6-.686 20.506c0 .837.048 1.475.136 1.908.082.437.357.802.816 1.105.46.31.867.51 1.207.597.335.09 1.085.27 2.233.55v.935h-11.266v-.006zm42.013 0v-.91c.086 0 .125-.013.125-.028 1.865-.418 3.055-.865 3.566-1.336.518-.47.77-1.466.77-2.996V39.398c0-1.513-.268-2.494-.82-2.94-.55-.443-1.768-.848-3.646-1.215v-.91h26.78l.437 7.134h-1.64c-.313-2.02-.91-3.35-1.788-3.995-.88-.646-2.39-.966-4.535-.966h-9.53v11.39l6.165.025c2.193 0 3.695-.26 4.508-.774.81-.515 1.258-1.666 1.344-3.458l1.65-.102v11.886h-1.628l-.027-.132c-.14-1.95-.59-3.237-1.357-3.865-.764-.624-2.264-.938-4.498-.938l-6.158.025V60.75c0 1.095.13 1.828.402 2.195.264.363.848.547 1.736.547h6.215c3.104 0 5.176-.426 6.22-1.28 1.04-.853 1.935-2.778 2.665-5.77l1.637.026-.883 9.352h-27.71v-.01zm31.527-9.376h1.57c.016.055.037.103.053.158.47 2.295 1.506 4.154 3.11 5.56 1.605 1.408 3.466 2.118 5.59 2.118 1.913 0 3.46-.45 4.64-1.355 1.172-.91 1.76-2.113 1.76-3.61 0-.886-.13-1.66-.39-2.32s-.72-1.27-1.37-1.804c-.656-.54-1.172-.93-1.555-1.173-.387-.24-1.055-.63-2.016-1.15-.973-.52-2.766-1.453-5.38-2.796-3.83-1.95-5.747-4.676-5.747-8.175 0-2.49.99-4.51 2.97-6.06 1.978-1.55 4.4-2.324 7.27-2.324 2.026 0 3.98.35 5.858 1.048.557.227 1.084.25 1.578.063.503-.182.782-.51.853-.978h.992l1.02 9.355h-1.642c0-.087-.008-.133-.033-.133-1.44-4.79-4.37-7.174-8.777-7.16-1.613 0-2.916.436-3.906 1.31-.98.873-1.47 1.966-1.47 3.29 0 2.128 1.48 4.006 4.44 5.644.66.367 2.514 1.314 5.56 2.85 4.464 2.227 6.692 5.145 6.692 8.753 0 2.663-1.044 4.848-3.122 6.53-2.078 1.688-4.783 2.535-8.088 2.535-2.037 0-3.953-.375-5.74-1.12-1.188-.487-2.037-.73-2.537-.73-.75 0-1.355.35-1.828 1.07h-1.04l.685-9.39z"/></svg>