<svg xmlns="http://www.w3.org/2000/svg" viewBox="0 0 1000 1000">
	<defs>
		<style>
			path{fill: #ffffff; opacity: 0.6;}
		</style>
	</defs>
	<title>FT logo</title>
	<g>
		<path d="M-5,-7 h42 v43 h-42z M1.57,17h7.617v-0.621c-0.529-0.015-0.927-0.044-1.192-0.089c-0.266-0.044-0.492-0.138-0.688-0.275c-0.198-0.139-0.324-0.328-0.384-0.565c-0.054-0.234-0.085-0.565-0.085-0.989V9.233h1.189c1.07,0,1.854,0.164,2.35,0.494c0.493,0.33,0.82,0.949,0.984,1.859h0.602V5.962h-0.602C11.26,6.554,11.105,7,10.903,7.286C10.7,7.582,10.385,7.792,9.945,7.917C9.507,8.046,8.87,8.113,8.028,8.113H6.838V3c0-0.328,0.06-0.547,0.174-0.657c0.115-0.112,0.35-0.17,0.703-0.17h2.422c0.792,0,1.433,0.039,1.914,0.109c0.482,0.068,0.881,0.207,1.195,0.409c0.318,0.2,0.558,0.44,0.719,0.715c0.162,0.272,0.312,0.655,0.467,1.142h0.673L15.002,1H1.6v0.608c0.441,0.021,0.774,0.055,1,0.095c0.225,0.04,0.423,0.129,0.603,0.265c0.179,0.142,0.3,0.33,0.356,0.57C3.622,2.78,3.647,3.116,3.647,3.542V14.46c0,0.424-0.025,0.755-0.088,0.989c-0.057,0.237-0.178,0.427-0.356,0.565c-0.18,0.138-0.383,0.231-0.62,0.275c-0.236,0.045-0.575,0.074-1.013,0.089V17z M15.778,4.548h0.812c0.254-0.871,0.598-1.486,1.031-1.84c0.441-0.354,1.078-0.535,1.918-0.535h1.965V14.46c0,0.424-0.027,0.755-0.092,0.989c-0.057,0.237-0.176,0.427-0.365,0.565c-0.188,0.138-0.41,0.231-0.662,0.275c-0.252,0.045-0.627,0.074-1.119,0.089V17h7.691v-0.621c-0.496-0.015-0.873-0.044-1.133-0.089c-0.26-0.044-0.484-0.138-0.672-0.275c-0.191-0.139-0.314-0.328-0.373-0.565c-0.053-0.234-0.084-0.565-0.084-0.989V2.173h1.969c0.838,0,1.48,0.182,1.916,0.535c0.439,0.354,0.781,0.969,1.035,1.84h0.814L30.104,1H16.189L15.778,4.548z"></path>
	</g>
</svg>